<svg width="16" height="16" viewBox="0 0 16 16" fill="none" xmlns="http://www.w3.org/2000/svg">
<g id="fi-rr-angle-small-right">
<path id="Vector" d="M10.015 6.58753L6.60227 3.52783C6.46296 3.40367 6.27452 3.33398 6.07809 3.33398C5.88166 3.33398 5.69322 3.40367 5.55391 3.52783C5.48423 3.5898 5.42891 3.66352 5.39117 3.74476C5.35342 3.82599 5.33398 3.91312 5.33398 4.00111C5.33398 4.08911 5.35342 4.17624 5.39117 4.25747C5.42891 4.33871 5.48423 4.41243 5.55391 4.4744L8.97407 7.52744C9.04376 7.58941 9.09907 7.66314 9.13682 7.74437C9.17457 7.8256 9.194 7.91273 9.194 8.00073C9.194 8.08873 9.17457 8.17586 9.13682 8.25709C9.09907 8.33832 9.04376 8.41205 8.97407 8.47402L5.55391 11.5271C5.41391 11.6517 5.33486 11.8211 5.33416 11.998C5.33347 12.1749 5.41118 12.3448 5.5502 12.4703C5.68922 12.5958 5.87816 12.6667 6.07546 12.6673C6.27276 12.6679 6.46226 12.5983 6.60227 12.4736L10.015 9.41392C10.4327 9.03896 10.6673 8.53068 10.6673 8.00073C10.6673 7.47078 10.4327 6.9625 10.015 6.58753Z" fill="#000814"/>
</g>
</svg>
